# xmcd
#
# Track frame offsets:
#	225
#	13407
#	27412
#	38807
#	50062
#	61062
#	72150
#	83800
#	95400
#	107687
#	120282
#	130887
#	144812
#	157237
#	169562
#	180250
#	190775
#	201100
#	214012
#	226975
#
# Disc length: 3316 seconds
# Revision: 5
# Processed by: cddbd v1.5.2PL0 Copyright (c) Steve Scherf et al.
# Submitted via: dBpowerAMP V12.0
#
DISCID=0b0cf114
DTITLE=Elmore James - 20 Greatest Hits
DYEAR=1987
DGENRE=Blues
TTITLE0=Dust My Broom
TTITLE1=It Hurts Me Too
TTITLE2=Shake Your Moneymaker
TTITLE3=Rolling and Tumbling
TTITLE4=Coming Home
TTITLE5=Person To Person
TTITLE6=Talk To Me Baby (I Can't Hold Out)
TTITLE7=Fine Little Mama
TTITLE8=The Sky Is Crying
TTITLE9=I Need You
TTITLE10=Take Me Where You Go
TTITLE11=The Twelve Year Old Boy
TTITLE12=Cry For Me Baby
TTITLE13=Gotta Move
TTITLE14=One Way Out
TTITLE15=Done Somebody Wrong
TTITLE16=Can't Stop Lovin' My Baby
TTITLE17=Baby Please Set A Date
TTITLE18=Held My Baby Last Night
TTITLE19=Something Inside Of Me
EXTD=
EXTT0=
EXTT1=
EXTT2=
EXTT3=
EXTT4=
EXTT5=
EXTT6=
EXTT7=
EXTT8=
EXTT9=
EXTT10=
EXTT11=
EXTT12=
EXTT13=
EXTT14=
EXTT15=
EXTT16=
EXTT17=
EXTT18=
EXTT19=
PLAYORDER=
